# xmcd
#
# Track frame offsets:
#	150
#	15788
#	27610
#	41373
#	55766
#	80390
#	98629
#	113215
#	131436
#	148438
#
# Disc length: 2205 seconds
#
# Revision: 1
# Processed by: cddbd v1.5.1PL0 Copyright (c) Steve Scherf et al.
# Submitted via: audiograbber 1.83.01
#
DISCID=7a089b0a
DTITLE=Lonely Samoans, the - Here Come the lonely samoans
DYEAR=2004
DGENRE=Country
TTITLE0=The Heart broken man
TTITLE1=I told you so
TTITLE2=Shining Star
TTITLE3=Until the day i die
TTITLE4=Mr. Corporation
TTITLE5=Sweet home yellow Texas
TTITLE6=When i'm with you
TTITLE7=The Fool's Prayer
TTITLE8=Believe in Love
TTITLE9=One more day
EXTD=
EXTT0=
EXTT1=
EXTT2=
EXTT3=
EXTT4=
EXTT5=
EXTT6=
EXTT7=
EXTT8=
EXTT9=
PLAYORDER=
